<?xml version="1.0" encoding="utf-8"?>
<!-- Generator: Adobe Illustrator 19.2.0, SVG Export Plug-In . SVG Version: 6.00 Build 0)  -->
<svg version="1.1" xmlns="http://www.w3.org/2000/svg" xmlns:xlink="http://www.w3.org/1999/xlink" x="0px" y="0px"
	 viewBox="0 0 560 560" style="enable-background:new 0 0 560 560;" xml:space="preserve">
<style type="text/css">
	.st0{display:none;}
	.st1{fill:#FFFFFF;}
	.st2{fill:#A3A3A3;}
</style>
<g id="Layer_1" class="st0">
	
		<image style="display:inline;overflow:visible;" width="839" height="409" id="Layer_2_xA0_Image_2_" xlink:href="5A4B2AB65E0951C8.png"  transform="matrix(0.6259 0 0 0.6259 18.2922 76.6)">
	</image>
</g>
<g id="Layer_2">
	<g>
		<path class="st1" d="M196.5,185.9c-0.4-3-0.9-5.7-1.5-8.2c-0.1-0.4-0.2-0.8-0.3-1.2c-0.7-4.7-3.1-9.9-5-13.4
			c-19.5-37.9-61.2-0.9-61.2-0.9c-25.2-36.2-69.8,5.1-69.8,5.1c-4.6-6-1-22.5-1-22.5c-11.8,6.5-38.4,0.5-38.4,0.5
			c2,3.4,3.1,181.2,3.1,181.2c4.5-4.5,35-0.5,35-0.5c-1.9-7.4-0.4-123.6-0.4-123.6C84.2,168.8,91,201,91,201l2.5,125
			c4.9-3.8,41-0.1,40.8,0.2c-0.3,0.4-3.2-122.9-3.8-133.5c17.8-14.7,24.9-4.3,27.2,0.8c0,0-0.1,0-0.1,0s0.4,0.6,0.9,2.3
			c0,0.1,0.1,0.2,0.1,0.2c0,0,0,0,0,0.1c0.6,2,1.4,5.4,2.1,10.7c3.6,31.5,3.9,116.8,3.8,120.2c3.5-3.4,36.2-2.4,36-2.5
			C202.5,244.7,199.4,205.1,196.5,185.9z"/>
		<path class="st1" d="M164.5,327C164.5,327,164.5,327,164.5,327C164.5,327.1,164.5,327.1,164.5,327z"/>
	</g>
	<path class="st1" d="M239.2,146c0,0,14.8,3.5,31.8-0.8c0,0,12.2,165,7.5,179.2c0,0-8.2-3.5-37.5,2.5C241,327,241.8,156.5,239.2,146
		z"/>
	<path class="st1" d="M233.5,106.5c0,0-7.2-46,35.2-22.2c0,0,10,10-1.5,26C266.2,110.2,255.8,127.8,233.5,106.5z"/>
	<path class="st1" d="M422.2,169.2c-13-49.2-71.5-7.8-71.5-7.8c-2.2-2.8-0.8-23.2-0.8-23.2c-9.8,5-32.8,2-32.8,2
		c0.5,144.2-5,191-1.8,187s35-1.8,35-1.8C346.8,319.2,349,191,349,191c33.5-26,40.5-1.2,41.2-1c3,6.2,2,135,2,135
		c7.2-3.2,34.2,1.2,34.2,1.2C431.2,309.8,422.2,169.2,422.2,169.2z"/>
	<path class="st1" d="M544.5,296c-8.2,2.5-14.7,2.5-20,1.1c-19.5-7-19.8-28.6-19.8-28.6l-0.2-93.8l33-1.2c-3-2-1-32.2-1-32.2
		c-6.2-2.2-33.8-1.2-33.8-1.2l0.5-50.5C493,93,468,88.8,468,88.8s1,52.9,0.2,52.8c-6-1.2-22.2,0.8-22.2,0.8c4.5,2.8,0.8,34,0.8,34
		c4.5,1.8,19.8,1.8,19.8,1.8c-1.2,122.5,4.8,127.2,4.8,127.2c15,37.8,71.2,23.8,71.2,23.8c-1.1-1.9-1.6-4.8-1.7-8.1
		C541,310.9,544.5,296,544.5,296z"/>
	<g>
		<path class="st2" d="M41.3,363.3c-3.3,0-6.1,0.6-8.6,1.7c-2.4,1.1-4.4,2.7-6,4.7c-1.6,2-2.7,4.4-3.5,7.2c-0.8,2.8-1.1,5.8-1.1,9.1
			c0,3.3,0.4,6.3,1.2,9.1c0.8,2.8,2,5.2,3.6,7.2c1.6,2,3.7,3.6,6.2,4.7c2.5,1.1,5.5,1.7,8.9,1.7c2.3,0,4.5-0.3,6.6-0.8
			c2.1-0.5,4.1-1.2,6-2l1.3,3.8c-1.9,0.9-4,1.7-6.4,2.3c-2.4,0.6-5,0.9-7.7,0.9c-4.1,0-7.7-0.7-10.7-2c-3.1-1.3-5.6-3.2-7.7-5.6
			c-2-2.4-3.6-5.2-4.6-8.5c-1-3.3-1.6-6.8-1.6-10.7c0-3.9,0.5-7.4,1.5-10.7c1-3.3,2.5-6.1,4.6-8.5c2-2.4,4.6-4.3,7.6-5.6
			c3-1.3,6.5-2,10.5-2c2.6,0,5.1,0.3,7.3,0.8c2.2,0.5,4.3,1.2,6.3,2l-1.2,3.8c-1.6-0.8-3.5-1.4-5.6-1.8
			C46.1,363.5,43.8,363.3,41.3,363.3z"/>
		<path class="st2" d="M86,359.2c3.9,0,7.3,0.7,10.2,2c2.9,1.3,5.3,3.2,7.2,5.6c1.9,2.4,3.4,5.2,4.3,8.5c1,3.3,1.4,6.8,1.4,10.7
			c0,3.9-0.5,7.4-1.4,10.7c-1,3.3-2.4,6.1-4.3,8.5c-1.9,2.4-4.3,4.3-7.2,5.6c-2.9,1.3-6.3,2-10.2,2c-3.9,0-7.3-0.7-10.2-2
			s-5.3-3.2-7.2-5.6c-1.9-2.4-3.4-5.2-4.3-8.5c-1-3.3-1.4-6.8-1.4-10.7c0-3.9,0.5-7.4,1.4-10.7c1-3.3,2.4-6.1,4.3-8.5
			c1.9-2.4,4.3-4.3,7.2-5.6C78.7,359.8,82.1,359.2,86,359.2z M86,408.5c3.2,0,6-0.6,8.3-1.7c2.3-1.1,4.2-2.7,5.7-4.7
			c1.5-2,2.6-4.4,3.3-7.2c0.7-2.8,1.1-5.8,1.1-9.1c0-3.3-0.4-6.3-1.1-9.1c-0.7-2.8-1.8-5.2-3.3-7.2c-1.5-2-3.4-3.6-5.7-4.7
			c-2.3-1.1-5.1-1.7-8.3-1.7s-6,0.6-8.3,1.7c-2.3,1.1-4.2,2.7-5.7,4.7c-1.5,2-2.6,4.4-3.3,7.2c-0.7,2.8-1.1,5.8-1.1,9.1
			c0,3.3,0.4,6.3,1.1,9.1c0.7,2.8,1.8,5.2,3.3,7.2c1.5,2,3.4,3.6,5.7,4.7C80,408,82.8,408.5,86,408.5z"/>
		<path class="st2" d="M147,412.7c-4.3,0-8-1-11-3c-3-2-5.5-4.7-7.3-8v30.7h-4.9V360h3.6l1.3,10.2c0.9-1.3,1.9-2.6,3.2-3.9
			c1.3-1.3,2.7-2.5,4.3-3.5c1.6-1,3.5-1.9,5.5-2.6c2-0.7,4.2-1,6.5-1c2.9,0,5.5,0.6,8,1.7c2.5,1.1,4.6,2.8,6.4,5
			c1.8,2.2,3.3,5,4.3,8.3c1,3.3,1.6,7.2,1.6,11.6c0,4.8-0.6,8.9-1.7,12.3c-1.1,3.4-2.6,6.2-4.6,8.4c-1.9,2.2-4.2,3.8-6.8,4.8
			C152.8,412.2,150,412.7,147,412.7z M146.7,408.3c2.1,0,4.1-0.4,6.2-1.2c2-0.8,3.8-2.1,5.4-3.9c1.6-1.8,2.8-4.1,3.8-7
			c1-2.9,1.4-6.4,1.4-10.5c0-3.9-0.4-7.3-1.2-10.1c-0.8-2.8-1.9-5.1-3.3-6.9c-1.4-1.8-3.1-3.1-5-4c-1.9-0.9-4-1.3-6.1-1.3
			c-3.9,0-7.4,1-10.7,3.1c-3.3,2.1-6.1,5-8.5,8.9v13.5c0,2.4,0.4,4.7,1.1,7c0.8,2.3,1.9,4.3,3.4,6.2s3.4,3.3,5.6,4.4
			C141.1,407.7,143.7,408.3,146.7,408.3z"/>
		<path class="st2" d="M219,400.8c-0.6,1.3-1.6,2.6-2.7,3.9c-1.2,1.3-2.6,2.5-4.2,3.5c-1.6,1-3.4,1.9-5.4,2.6c-2,0.7-4.1,1-6.4,1
			c-5.6,0-9.9-1.7-12.8-5c-3-3.4-4.5-8.2-4.5-14.4V360h4.9v32.4c0,4.8,1,8.5,3.1,11.1c2,2.6,5.3,3.9,9.7,3.9c2,0,3.9-0.4,5.8-1.1
			c1.9-0.7,3.6-1.6,5.3-2.7c1.6-1.1,3-2.4,4.2-3.8c1.2-1.4,2.2-2.9,3-4.4V360h4.9v49.4c0,15.9-6.8,23.8-20.4,23.8
			c-3.9,0-7.4-0.5-10.6-1.6c-3.2-1-5.8-2.2-7.6-3.4l1.3-4c1.9,1.1,4.3,2.2,7.3,3.1c3,0.9,6.2,1.4,9.7,1.4c2.5,0,4.7-0.3,6.6-1
			c1.9-0.7,3.5-1.8,4.8-3.3c1.3-1.5,2.3-3.6,2.9-6.1c0.7-2.5,1-5.5,1-9.1V400.8z"/>
		<path class="st2" d="M272.8,360l10.3,32.2c0.7,2.1,1.4,4.5,2,7.1c0.6,2.6,1.2,5.1,1.6,7.6h0.2c0.1-0.9,0.2-2,0.4-3.3
			s0.4-2.7,0.6-4.2c0.2-1.5,0.5-3,0.9-4.6c0.3-1.5,0.7-3.1,1-4.6l7.7-30.2h4.6L289,411.8h-4l-12.7-39.3c-0.4-1.4-0.9-2.9-1.3-4.5
			c-0.4-1.5-0.8-3-1.1-4.3h-0.2c-0.3,1.4-0.6,2.8-1.1,4.3c-0.4,1.5-0.9,3-1.3,4.5l-12.7,39.3h-4L237.6,360h4.6l7.7,30.2
			c0.4,1.5,0.7,3,1,4.6c0.3,1.5,0.6,3.1,0.9,4.6c0.2,1.5,0.4,2.9,0.6,4.2c0.1,1.3,0.3,2.4,0.4,3.3h0.2c0.4-2.4,1-5,1.6-7.6
			c0.6-2.6,1.3-5,2-7.1L267,360H272.8z"/>
		<path class="st2" d="M319.7,411.8h-4.9V360h3.6l1.3,10.2c0.9-1.5,1.8-2.9,2.9-4.2c1.1-1.3,2.3-2.5,3.7-3.5c1.4-1,2.8-1.8,4.4-2.4
			c1.6-0.6,3.2-0.9,4.9-0.9c1.5,0,2.8,0.2,4,0.5c1.2,0.3,2.2,0.7,2.9,1.1l-1.3,4.7c-0.7-0.4-1.6-0.8-2.5-1.1c-1-0.3-2.2-0.4-3.7-0.4
			c-3.4,0-6.4,1.1-8.9,3.3c-2.5,2.2-4.7,5-6.5,8.3V411.8z"/>
		<path class="st2" d="M356.9,338.7c1.4,0,2.4,0.4,3.2,1.2c0.8,0.8,1.1,1.8,1.1,2.9c0,1.1-0.4,2.1-1.1,2.9c-0.8,0.8-1.8,1.2-3.2,1.2
			c-1.4,0-2.4-0.4-3.2-1.2c-0.8-0.8-1.1-1.8-1.1-2.9c0-1.1,0.4-2.1,1.1-2.9C354.5,339.1,355.5,338.7,356.9,338.7z M359.4,411.8h-4.9
			V360h4.9V411.8z"/>
		<path class="st2" d="M384.8,398.4c0,3.6,0.6,6.2,1.7,7.7c1.1,1.5,3.1,2.2,6,2.2c1.6,0,3.2-0.2,4.7-0.8c1.5-0.5,2.7-1.1,3.7-1.9
			l1.4,3.5c-1.2,0.9-2.7,1.6-4.3,2.3c-1.7,0.7-3.7,1-6,1c-4,0-7-1.1-9-3.2c-2-2.1-3-5.7-3-10.7v-34.4h-9V360h8.9l1.7-14.8h3.2V360
			h16.4v4.1h-16.4V398.4z"/>
		<path class="st2" d="M417.2,338.7c1.4,0,2.4,0.4,3.2,1.2c0.8,0.8,1.1,1.8,1.1,2.9c0,1.1-0.4,2.1-1.1,2.9c-0.8,0.8-1.8,1.2-3.2,1.2
			c-1.4,0-2.4-0.4-3.2-1.2c-0.8-0.8-1.1-1.8-1.1-2.9c0-1.1,0.4-2.1,1.1-2.9C414.8,339.1,415.8,338.7,417.2,338.7z M419.6,411.8h-4.9
			V360h4.9V411.8z"/>
		<path class="st2" d="M443,411.8h-4.9V360h3.6l1.3,10.2c1.1-1.4,2.3-2.7,3.7-4c1.4-1.3,2.9-2.5,4.7-3.5c1.7-1,3.6-1.9,5.6-2.5
			c2-0.6,4.1-1,6.3-1c5.4,0,9.6,1.7,12.6,5c3,3.4,4.5,8.2,4.5,14.4v33.2h-4.9v-33.2c0-4.8-1.1-8.5-3.4-11.1
			c-2.3-2.6-5.3-3.9-9.2-3.9c-2.1,0-4.1,0.3-6,1c-1.9,0.7-3.8,1.6-5.5,2.7c-1.7,1.1-3.3,2.4-4.7,3.9c-1.4,1.4-2.6,2.9-3.6,4.4V411.8
			z"/>
		<path class="st2" d="M534.6,401.7c-1.9,3.4-4.3,6-7.2,8c-3,2-6.5,3-10.6,3c-3.1,0-6.1-0.5-8.7-1.5c-2.7-1-5-2.6-7-4.8
			c-2-2.2-3.5-5-4.6-8.4c-1.1-3.4-1.7-7.5-1.7-12.3c0-4.2,0.6-8,1.7-11.3c1.1-3.3,2.7-6.1,4.7-8.4c2-2.3,4.2-4,6.8-5.2
			s5.3-1.8,8.3-1.8c2.4,0,4.5,0.3,6.4,1c1.9,0.7,3.7,1.6,5.2,2.6c1.5,1.1,2.9,2.3,4,3.5c1.1,1.3,2,2.6,2.7,3.9l1.3-10.2h3.6v49.4
			c0,8-1.9,14-5.8,17.9c-3.9,3.9-9.3,5.9-16.2,5.9c-3.6,0-7-0.5-10-1.4c-3-0.9-5.6-1.9-7.6-3l1.3-4c2,1.1,4.4,2,7.2,2.8
			c2.8,0.8,5.9,1.2,9.3,1.2c2.6,0,4.9-0.3,7-1c2.1-0.7,3.8-1.8,5.3-3.3c1.5-1.5,2.6-3.6,3.4-6.1c0.8-2.5,1.2-5.5,1.2-9.1V401.7z
			 M517.1,408.3c2.9,0,5.4-0.6,7.6-1.7c2.2-1.1,4-2.6,5.5-4.4c1.5-1.8,2.6-3.9,3.3-6.2c0.8-2.3,1.1-4.6,1.1-7v-13.5
			c-2.1-3.6-4.7-6.6-7.7-8.7c-3-2.2-6.4-3.3-10.1-3.3c-2.3,0-4.5,0.4-6.5,1.3c-2,0.9-3.8,2.3-5.4,4.1c-1.6,1.8-2.8,4.1-3.8,6.9
			c-0.9,2.8-1.4,6.1-1.4,9.9c0,4.1,0.5,7.7,1.4,10.5c1,2.9,2.3,5.2,3.9,7c1.6,1.8,3.5,3.1,5.6,3.9
			C512.7,407.9,514.9,408.3,517.1,408.3z"/>
	</g>
</g>
</svg>
